<!--<?xml version="1.0" standalone="no"?>-->
<!--<!DOCTYPE svg PUBLIC "-//W3C//DTD SVG 20010904//EN"-->
<!-- "http://www.w3.org/TR/2001/REC-SVG-20010904/DTD/svg10.dtd">-->
<!--<svg version="1.0" xmlns="http://www.w3.org/2000/svg"-->
<!-- width="872.000000pt" height="872.000000pt" viewBox="0 0 872.000000 872.000000"-->
<!-- preserveAspectRatio="xMidYMid meet" fill="currentColor" stroke="currentColor" >-->


<svg version="1.0" xmlns="http://www.w3.org/2000/svg"
 width="872.000000pt" height="872.000000pt" viewBox="0 0 872.000000 872.000000"
 preserveAspectRatio="xMidYMid meet" fill="rgb(253, 196, 39)" stroke="rgb(253, 196, 39)" >
<!-- var(&#45;&#45;c_primary60);-->
    <g transform="translate(0.000000,872.000000) scale(0.100000,-0.100000)">
    <path d="M4105 8165 c-38 -37 -34 -89 10 -131 l35 -33 0 -113 0 -113 310 -310
    310 -311 0 -380 0 -379 140 -140 140 -140 0 -740 0 -740 -155 155 -155 155 0
    510 0 510 -230 230 -230 230 0 375 0 375 -404 404 -403 403 5 44 c4 38 1 47
    -26 74 -41 40 -83 41 -123 1 -31 -31 -38 -75 -18 -112 15 -29 66 -48 99 -39
    26 7 52 -17 429 -394 l401 -401 0 -370 0 -370 230 -230 230 -230 0 -485 0
    -485 -90 90 -90 90 0 400 0 400 -285 285 -285 285 0 340 0 340 -177 177 -178
    178 -145 0 -145 0 -141 141 -141 141 4 42 c4 35 1 48 -20 71 -20 24 -33 30
    -67 30 -102 0 -125 -135 -30 -175 23 -9 37 -10 54 -2 21 9 35 -2 172 -139
    l149 -149 150 0 150 0 163 -163 162 -162 0 -340 0 -340 290 -290 290 -290 0
    -400 0 -400 540 -540 540 -540 0 -775 0 -775 119 -119 119 -119 1 -346 2 -346
    139 -140 140 -140 0 -268 c0 -171 -4 -267 -10 -267 -6 0 -10 -80 -10 -220 l0
    -220 40 0 40 0 0 220 c0 140 -4 220 -10 220 -6 0 -10 99 -10 278 l0 277 -145
    145 -145 145 0 345 0 345 -115 115 -115 115 0 770 0 770 -145 145 -145 145 0
    1620 0 1620 112 112 c102 102 113 111 136 102 43 -16 95 11 113 60 20 51 -30
    121 -86 121 -57 0 -105 -66 -87 -118 10 -28 6 -33 -109 -148 l-119 -119 0
    -575 0 -575 -150 150 -150 150 0 467 c0 319 3 468 10 468 6 0 22 11 35 25 54
    53 11 155 -65 155 -76 0 -119 -102 -65 -155 13 -14 29 -25 35 -25 7 0 10 -151
    10 -473 l0 -472 170 -170 170 -170 0 -1005 0 -1005 -95 95 -95 95 0 765 0 765
    -145 146 -144 147 -1 378 0 379 -305 305 -305 305 0 108 0 108 35 33 c27 26
    35 41 35 68 0 79 -99 120 -155 63z m103 -27 c27 -27 0 -88 -39 -88 -40 0 -65
    60 -37 88 7 7 24 12 38 12 14 0 31 -5 38 -12z m-786 -65 c36 -32 17 -83 -32
    -83 -48 0 -67 45 -33 82 20 22 41 23 65 1z m-450 -130 c26 -23 23 -59 -7 -79
    -23 -15 -27 -15 -50 0 -29 19 -32 51 -8 78 20 22 41 23 65 1z m2658 -3 c23
    -23 25 -39 7 -64 -27 -36 -97 -14 -97 31 0 18 37 53 55 53 8 0 24 -9 35 -20z
    m-638 -117 c36 -32 17 -83 -32 -83 -14 0 -31 5 -38 12 -27 27 -3 88 35 88 9 0
    25 -7 35 -17z"/>
    <path d="M2321 7876 c-27 -15 -50 -52 -51 -79 -1 -59 65 -108 118 -89 28 9 33
    7 88 -49 l58 -59 186 0 185 0 99 -99 100 -100 4 -105 4 -106 -383 0 -384 0
    -156 156 -156 156 5 44 c4 38 1 47 -26 74 -41 40 -83 41 -123 1 -31 -31 -38
    -75 -18 -113 15 -28 72 -50 102 -39 22 9 38 -5 188 -155 l164 -164 395 0 395
    0 368 -368 367 -367 0 -580 0 -580 -110 110 -110 110 0 515 0 515 -188 188
    -187 187 -645 0 -645 0 -141 141 c-135 135 -142 143 -132 169 13 40 -11 93
    -51 109 -76 32 -153 -43 -121 -118 16 -40 71 -66 109 -53 27 10 34 4 177 -140
    l149 -150 637 5 637 4 181 -179 180 -180 0 -512 0 -511 138 -138 137 -137 213
    0 212 0 95 -96 95 -97 0 -138 0 -139 -398 0 -397 0 -163 163 -162 162 0 635 0
    634 -168 168 -168 168 -685 0 -684 0 -123 123 c-116 116 -122 125 -113 150 22
    56 -28 117 -94 117 -16 0 -38 -12 -56 -29 -37 -38 -38 -79 -2 -121 24 -30 30
    -32 74 -28 l47 5 129 -129 128 -128 680 0 680 0 158 -158 157 -157 0 -630 0
    -630 177 -177 178 -178 410 0 410 0 108 -108 c59 -59 107 -111 107 -114 0 -4
    -336 -8 -746 -8 l-747 0 -113 112 -114 112 0 661 0 660 -158 158 -157 157
    -908 0 c-624 0 -907 3 -907 10 0 6 -11 22 -25 35 -55 56 -155 15 -155 -62 0
    -42 46 -93 84 -93 37 0 72 19 87 46 l12 24 901 0 901 0 143 -143 142 -142 0
    -635 0 -635 -145 145 -145 145 0 390 0 390 -98 98 -97 97 -918 0 -917 0 -10
    25 c-12 33 -63 58 -101 50 -64 -14 -93 -109 -46 -153 12 -11 34 -23 48 -27 34
    -8 86 18 101 51 l11 24 884 0 c486 -1 883 -4 883 -8 0 -4 -39 -47 -88 -95
    l-87 -87 -645 0 -645 0 -130 -130 -130 -129 -108 -2 c-105 -1 -109 -1 -121 22
    -13 27 -50 49 -83 49 -12 0 -35 -12 -52 -26 -26 -21 -31 -33 -31 -68 0 -92
    124 -126 166 -45 l15 29 117 0 117 0 130 130 130 130 640 0 640 0 105 105 c58
    58 109 105 115 105 5 0 42 -33 82 -72 l73 -73 -157 -157 -158 -158 -685 0
    -685 0 -135 -135 -135 -135 -93 0 -93 0 -33 35 c-42 44 -94 48 -131 10 -35
    -34 -35 -96 0 -130 37 -38 89 -34 131 10 l33 35 98 0 98 0 135 135 135 135
    690 0 690 0 152 152 153 153 0 -345 0 -345 -93 93 -93 93 -558 -1 -558 0 -170
    -170 -170 -170 -255 0 -256 0 -32 37 c-26 30 -39 37 -68 37 -66 0 -111 -66
    -86 -126 12 -29 54 -58 84 -58 27 0 73 29 80 50 6 19 15 20 278 20 l272 0 175
    175 175 175 535 0 535 0 255 -255 255 -255 -870 0 -870 0 -165 -165 -165 -165
    -111 0 c-108 0 -111 1 -122 25 -38 84 -172 56 -172 -35 0 -74 67 -118 130 -85
    17 9 35 27 40 40 9 25 11 25 132 25 l123 0 160 160 160 160 885 0 885 0 93
    -93 c50 -51 92 -96 92 -100 0 -4 -356 -7 -792 -7 l-792 0 -271 -269 -270 -270
    -47 6 c-41 5 -50 2 -72 -20 -37 -37 -36 -98 0 -132 39 -36 87 -34 126 6 27 27
    30 35 25 73 l-6 42 267 267 267 267 1585 0 1585 0 192 -192 193 -193 0 -730 0
    -730 187 -187 188 -188 -175 0 -175 0 -183 183 -182 182 0 670 0 670 -98 98
    -97 97 -1450 0 -1450 0 -98 -97 -97 -98 -51 0 c-43 0 -55 -4 -75 -28 -45 -53
    -25 -125 40 -147 66 -21 123 29 113 100 -5 36 -2 41 92 134 l96 96 475 0 475
    0 -159 -159 c-147 -147 -161 -159 -184 -150 -43 16 -95 -11 -113 -60 -20 -51
    30 -121 86 -121 57 0 105 66 87 118 -10 28 -5 34 162 201 l171 171 935 0 935
    0 83 -83 82 -82 0 -155 0 -155 -83 83 -82 82 -656 0 -655 0 -290 -291 c-282
    -282 -291 -290 -317 -280 -21 8 -36 7 -62 -3 -63 -26 -75 -97 -26 -147 40 -40
    82 -39 123 1 27 27 30 36 26 74 l-5 44 281 281 281 281 640 0 640 0 93 -93 92
    -92 0 -155 0 -155 -123 123 -122 122 -349 0 -348 0 -179 -179 -179 -180 0 -61
    c0 -57 -2 -64 -35 -94 -43 -41 -46 -81 -9 -125 54 -64 154 -27 154 56 -1 42
    -13 63 -47 82 -20 10 -23 20 -23 69 l0 57 168 168 167 167 335 0 335 0 128
    -128 127 -127 0 -305 0 -305 198 -198 197 -197 193 0 192 0 0 -228 0 -227 190
    -190 190 -190 0 -50 c0 -28 -5 -56 -10 -61 -7 -7 -9 -89 -8 -225 l3 -214 38
    -3 37 -3 0 225 c0 144 -4 226 -10 226 -6 0 -10 28 -10 63 l0 62 -190 190 -190
    190 0 230 0 230 -200 200 -200 200 0 730 0 730 -330 330 -330 330 0 155 0 155
    -108 108 -107 107 -208 0 -207 0 0 603 0 602 -375 375 -375 375 0 115 0 115
    -113 113 -112 112 -186 0 -185 0 -49 50 c-46 47 -49 52 -46 97 2 40 -2 52 -21
    71 -30 28 -76 36 -107 18z m67 -42 c28 -20 28 -58 0 -78 -12 -9 -26 -16 -30
    -16 -14 0 -48 39 -48 55 0 16 34 55 48 55 4 0 18 -7 30 -16z m-406 -241 c36
    -32 17 -83 -32 -83 -48 0 -67 45 -33 82 20 22 41 23 65 1z m-348 -336 c36 -27
    14 -97 -31 -97 -18 0 -53 37 -53 55 0 18 35 55 53 55 7 0 21 -6 31 -13z m-270
    -270 c22 -16 18 -65 -5 -80 -47 -29 -101 32 -64 73 21 23 44 25 69 7z m-551
    -668 c14 -23 1 -67 -23 -74 -49 -15 -85 29 -60 75 14 25 67 25 83 -1z m-243
    -319 c26 -26 25 -55 -2 -74 -28 -20 -43 -20 -62 0 -23 22 -20 60 6 78 29 20
    34 20 58 -4z m-169 -489 c20 -16 22 -23 14 -46 -21 -58 -95 -46 -95 15 0 47
    42 63 81 31z m3 -297 c22 -21 20 -47 -4 -69 -44 -40 -107 25 -69 71 15 19 54
    18 73 -2z m6 -320 c18 -47 -26 -88 -69 -65 -49 27 -32 91 25 91 28 0 36 -5 44
    -26z m160 -512 c47 -38 -5 -111 -56 -77 -31 20 -32 59 -2 79 28 20 31 20 58
    -2z m434 -518 c9 -8 16 -24 16 -34 0 -40 -60 -66 -88 -38 -15 15 -15 61 0 76
    17 17 54 15 72 -4z m474 -10 c30 -21 29 -59 -3 -80 -23 -15 -27 -15 -50 0 -29
    19 -32 51 -8 78 20 22 32 23 61 2z m873 -166 c21 -39 -19 -86 -62 -73 -40 13
    -44 80 -5 94 28 11 55 2 67 -21z m337 -560 c26 -26 0 -88 -36 -88 -23 0 -52
    30 -52 55 0 28 18 45 50 45 14 0 31 -5 38 -12z m823 -208 c23 -13 26 -62 5
    -79 -46 -38 -111 25 -71 69 20 22 37 25 66 10z"/>
    <path d="M5964 7875 c-33 -22 -49 -71 -35 -101 11 -24 4 -32 -144 -180 l-155
    -154 0 -1342 0 -1343 145 -145 145 -145 0 -740 0 -740 127 -127 128 -128 -83
    -83 -82 -82 0 -485 0 -485 120 -120 120 -120 0 -67 c0 -39 -4 -68 -10 -68 -6
    0 -10 -82 -10 -226 l0 -225 38 3 37 3 3 209 c2 163 -1 217 -12 240 -7 17 -14
    60 -15 96 l-2 65 -115 115 -114 114 0 196 0 196 213 3 212 2 140 140 140 139
    98 0 98 0 33 -35 c42 -44 89 -48 130 -10 57 53 17 155 -62 155 -27 0 -42 -8
    -68 -35 l-33 -35 -103 0 -103 0 -125 -125 c-69 -69 -128 -125 -132 -125 -5 0
    -8 150 -8 333 l0 332 100 100 100 100 183 -183 182 -182 77 0 c70 0 78 -2 89
    -23 19 -34 40 -46 82 -47 83 0 120 100 56 154 -44 37 -84 34 -125 -9 -31 -33
    -36 -35 -101 -35 l-68 0 -165 165 -165 165 415 0 414 0 52 -51 c52 -51 52 -52
    47 -103 -5 -49 -4 -54 27 -79 42 -36 83 -35 121 2 31 31 37 67 17 104 -19 36
    -41 47 -86 45 -40 -2 -46 2 -105 60 l-63 62 -432 0 -432 0 0 123 0 122 108
    108 107 107 638 0 c545 0 637 -2 637 -14 0 -23 50 -56 84 -56 42 0 72 23 86
    64 20 60 -21 116 -86 116 -34 0 -84 -33 -84 -56 0 -12 -93 -14 -643 -14 l-642
    0 -123 -123 -122 -122 0 -135 0 -135 -110 -110 -110 -110 0 -357 0 -358 -195
    0 -195 0 0 253 0 252 85 85 85 85 0 405 0 405 118 118 117 117 678 0 c560 0
    677 -2 677 -13 0 -37 73 -66 119 -47 58 24 70 115 19 153 -42 31 -87 25 -124
    -17 l-31 -36 -649 0 -649 0 145 145 145 145 405 0 405 0 111 111 112 111 151
    5 150 5 13 -27 c13 -29 55 -55 87 -55 12 0 35 13 53 29 54 48 38 126 -31 152
    -36 14 -88 -7 -106 -42 l-16 -29 -157 0 -157 0 -110 -110 -110 -110 -405 0
    -405 0 -270 -270 c-148 -148 -273 -270 -277 -270 -5 0 -8 127 -8 283 l0 282
    113 113 112 112 520 0 520 0 270 270 270 270 162 0 c135 0 163 -2 163 -14 0
    -23 50 -56 86 -56 20 0 43 9 61 24 61 53 21 156 -61 156 -36 0 -86 -33 -86
    -56 0 -12 -29 -14 -167 -14 l-168 0 -257 -257 -258 -258 0 395 0 395 183 183
    182 182 193 0 c127 0 192 -4 192 -10 0 -6 11 -22 25 -35 27 -28 88 -34 116
    -12 47 36 51 97 10 138 -42 41 -83 39 -128 -6 l-35 -35 -192 0 -191 0 -198
    -198 -197 -197 0 -413 0 -412 -505 0 -505 0 0 535 0 535 368 0 367 0 235 235
    235 235 133 0 133 0 33 -35 c41 -43 81 -46 125 -9 41 34 44 92 6 129 -43 44
    -119 32 -144 -21 -10 -24 -13 -24 -153 -24 l-143 0 -235 -235 -235 -235 -343
    2 -342 3 520 520 c488 488 523 520 552 517 45 -4 86 16 103 49 19 35 19 53 0
    89 -28 54 -105 60 -148 12 -18 -20 -26 -80 -14 -99 3 -5 -232 -247 -524 -539
    l-529 -529 0 335 0 335 397 397 397 397 42 -6 c38 -5 46 -2 73 25 72 71 11
    176 -86 150 -44 -11 -66 -47 -61 -98 l3 -40 -382 -382 -383 -383 0 285 0 285
    211 211 211 211 42 -4 c76 -9 126 60 92 126 -30 56 -95 69 -143 27 -24 -20
    -28 -32 -28 -75 l0 -51 -212 -212 -213 -213 0 -1235 0 -1235 -95 -95 -95 -95
    0 610 0 610 -140 140 -140 140 0 655 0 655 218 218 c218 218 219 218 254 212
    98 -18 154 100 76 158 -40 30 -87 25 -121 -14 -25 -27 -28 -37 -23 -73 l6 -41
    -225 -225 -225 -225 0 -665 0 -665 140 -140 140 -140 0 -1325 -1 -1325 -109
    112 -110 113 0 743 0 742 -150 150 -150 150 0 1315 0 1315 151 151 151 151 42
    -4 c35 -4 48 -1 71 20 62 53 24 157 -58 157 -18 0 -42 -7 -53 -15z m92 -50
    c15 -23 15 -27 0 -50 -10 -15 -26 -25 -41 -25 -15 0 -31 10 -41 25 -15 23 -15
    27 0 50 10 15 26 25 41 25 15 0 31 -10 41 -25z m412 -247 c19 -19 15 -66 -7
    -78 -31 -16 -49 -12 -67 15 -24 36 -6 75 34 75 15 0 33 -5 40 -12z m498 -193
    c15 -23 15 -27 0 -50 -10 -15 -26 -25 -41 -25 -15 0 -31 10 -41 25 -15 23 -15
    27 0 50 10 15 26 25 41 25 15 0 31 -10 41 -25z m372 -247 c27 -27 0 -88 -39
    -88 -40 0 -65 60 -37 88 7 7 24 12 38 12 14 0 31 -5 38 -12z m293 -450 c23
    -43 -22 -90 -67 -69 -17 8 -24 19 -24 40 0 54 66 75 91 29z m427 -670 c7 -7
    12 -25 12 -40 0 -34 -41 -59 -68 -42 -29 19 -37 41 -24 68 13 28 58 36 80 14z
    m316 -364 c19 -18 20 -38 6 -65 -12 -22 -59 -26 -78 -7 -28 28 -2 88 38 88 10
    0 26 -7 34 -16z m102 -689 c15 -23 15 -27 0 -50 -10 -15 -26 -25 -41 -25 -15
    0 -31 10 -41 25 -15 23 -15 27 0 50 10 15 26 25 41 25 15 0 31 -10 41 -25z
    m-236 -585 c11 0 25 -40 21 -60 -3 -18 -30 -40 -48 -40 -18 0 -53 37 -53 55 0
    22 39 57 57 51 8 -3 18 -6 23 -6z m-312 -562 c7 -7 12 -25 12 -40 0 -40 -39
    -58 -75 -34 -27 18 -31 36 -15 67 12 22 59 26 78 7z m388 -323 c15 -23 15 -27
    0 -51 -23 -33 -64 -30 -85 8 -14 24 -14 28 3 47 26 29 62 27 82 -4z m-532
    -698 c8 -23 6 -31 -12 -49 -30 -30 -75 -16 -80 25 -5 38 15 59 52 55 23 -2 33
    -10 40 -31z m-463 -157 c23 -13 26 -62 5 -79 -46 -38 -111 25 -71 69 20 22 37
    25 66 10z m-233 -292 c7 -7 12 -24 12 -38 0 -14 -5 -31 -12 -38 -28 -28 -88
    -2 -88 38 0 40 60 66 88 38z"/>
    </g>
</svg>
